<svg xmlns="http://www.w3.org/2000/svg" viewBox="0 0 64 80" x="0px" y="0px"><title>food-serve-service-restaurant</title><g><path d="M10,55a3,3,0,1,0-3,3A3,3,0,0,0,10,55ZM6,55a1,1,0,1,1,1,1A1,1,0,0,1,6,55Z"/><path d="M61,33H58A26,26,0,0,0,33,7V4h2V2H29V4h2V7A26,26,0,0,0,6,33H3a1,1,0,0,0-1,1,7,7,0,0,0,7,7h7.21l-2.66,2.21A1,1,0,0,0,13,43H2v2H12V60H2v2H13a1,1,0,0,0,1-1V58H37.81a7,7,0,0,0,4.46-1.61l12.09-10a3.91,3.91,0,0,0,1.08-5.19c0-.07-.1-.13-.14-.2A7,7,0,0,0,62,34,1,1,0,0,0,61,33ZM32,9A24,24,0,0,1,56,33H8A24,24,0,0,1,32,9ZM53.14,44.79,41,54.85A5,5,0,0,1,37.81,56H14V45.47L18.5,41.7a3,3,0,0,1,1.92-.7h13a1.5,1.5,0,0,1,0,3H27a3,3,0,0,0,0,6H39a1,1,0,0,0,.58-.19L51,41.64a1.92,1.92,0,0,1,2.74.57A1.94,1.94,0,0,1,53.14,44.79ZM36.62,41H48.45l-9.8,7H27a1,1,0,0,1,0-2h6.5A3.5,3.5,0,0,0,37,42.5,3.45,3.45,0,0,0,36.62,41ZM55,39H9a5,5,0,0,1-4.9-4H59.9A5,5,0,0,1,55,39Z"/><path d="M13.63,20.91,15.3,22a19.16,19.16,0,0,1,1.75-2.28l-1.5-1.33A22.22,22.22,0,0,0,13.63,20.91Z"/><path d="M18.32,18.42A19.93,19.93,0,0,1,32,13V11a21.9,21.9,0,0,0-15,6Z"/></g><text x="0" y="79" fill="#000000" font-size="5px" font-weight="bold" font-family="'Helvetica Neue', Helvetica, Arial-Unicode, Arial, Sans-serif">Created by monkik</text><text x="0" y="84" fill="#000000" font-size="5px" font-weight="bold" font-family="'Helvetica Neue', Helvetica, Arial-Unicode, Arial, Sans-serif">from the Noun Project</text></svg>