<svg xmlns="http://www.w3.org/2000/svg" viewBox="0 0 64 80" x="0px" y="0px"><title>candy and sweets</title><path d="M19,6.5c0,3.58,2.47,6.5,5.5,6.5S30,10.08,30,6.5,27.53,0,24.5,0,19,2.92,19,6.5Zm7,0C26,7.93,25.21,9,24.5,9S23,7.93,23,6.5,23.79,4,24.5,4,26,5.07,26,6.5Z"/><path d="M34,6.5c0,3.58,2.47,6.5,5.5,6.5S45,10.08,45,6.5,42.53,0,39.5,0,34,2.92,34,6.5Zm7,0C41,7.93,40.21,9,39.5,9S38,7.93,38,6.5,38.79,4,39.5,4,41,5.07,41,6.5Z"/><path d="M61,54.42V39a6,6,0,0,0-6-6H54V26a6,6,0,0,0-6-6H45V16a2,2,0,0,0-2-2H36a2,2,0,0,0-2,2v4H30V16a2,2,0,0,0-2-2H21a2,2,0,0,0-2,2v4H16a6,6,0,0,0-6,6v7H9a6,6,0,0,0-6,6V54.42A5,5,0,0,0,5,64H59a5,5,0,0,0,2-9.58ZM7,54V44.5H57V54ZM38,18h3v2H38ZM23,18h3v2H23Zm-9,8a2,2,0,0,1,2-2H48a2,2,0,0,1,2,2v7H14ZM9,37H55a2,2,0,0,1,2,2v1.5H7V39A2,2,0,0,1,9,37ZM59,60H5a1,1,0,0,1,0-2H59a1,1,0,0,1,0,2Z"/><text x="0" y="79" fill="#000000" font-size="5px" font-weight="bold" font-family="'Helvetica Neue', Helvetica, Arial-Unicode, Arial, Sans-serif">Created by Lagot Design</text><text x="0" y="84" fill="#000000" font-size="5px" font-weight="bold" font-family="'Helvetica Neue', Helvetica, Arial-Unicode, Arial, Sans-serif">from the Noun Project</text></svg>