<svg xmlns="http://www.w3.org/2000/svg" viewBox="0 0 64 80" x="0px" y="0px"><title>food 2</title><path d="M27,48h.5V59.5a4.5,4.5,0,0,0,9,0V48H37a6,6,0,0,0,6-6V6a6,6,0,0,0-6-6H27a6,6,0,0,0-6,6V42A6,6,0,0,0,27,48Zm5.5,11.5a.5.5,0,0,1-1,0V48h1ZM25,16h1v9.5a4.5,4.5,0,0,0,7.68,3.18A4.45,4.45,0,0,0,35,25.5V16h4V42a2,2,0,0,1-2,2H27a2,2,0,0,1-2-2Z"/><text x="0" y="79" fill="#000000" font-size="5px" font-weight="bold" font-family="'Helvetica Neue', Helvetica, Arial-Unicode, Arial, Sans-serif">Created by Lagot Design</text><text x="0" y="84" fill="#000000" font-size="5px" font-weight="bold" font-family="'Helvetica Neue', Helvetica, Arial-Unicode, Arial, Sans-serif">from the Noun Project</text></svg>