<svg xmlns="http://www.w3.org/2000/svg" data-name="Layer 1" viewBox="0 0 180 225" x="0px" y="0px"><path d="M90,1.009A87.991,87.991,0,0,0,48.234,166.442l-.411,8.353a4,4,0,0,0,3.995,4.2H71.344a3.969,3.969,0,0,0,3.917-3.248,88.673,88.673,0,0,0,29.075.062,3.958,3.958,0,0,0,3.9,3.186h19.8a4,4,0,0,0,4-4.2l-.405-8.281A87.99,87.99,0,0,0,90,1.009Zm14.012,90.875a19.664,19.664,0,0,1-5.676-14.229l.472-27.968,1.368-.016.474,21.736a4,4,0,0,0,4,3.912h8.837a4,4,0,0,0,4-3.912l.477-21.78h.353l.476,21.78a4,4,0,0,0,4,3.912h8.838a4,4,0,0,0,4-3.912l.475-21.736,1.365.016.471,27.971a19.8,19.8,0,0,1-33.926,14.226Zm24.547,11.908a27.849,27.849,0,0,0,17.377-26.271l-.384-22.81a65.247,65.247,0,0,1-15.2,85.635Zm3.674-62.164h-.045a4,4,0,0,0-4,3.913l-.475,21.779H126.7l-.475-21.779a4,4,0,0,0-4-3.913h-8.18a4,4,0,0,0-4,3.913l-.477,21.779h-1.01l-.475-21.779a3.977,3.977,0,0,0-4.044-3.912l-9.215.1a4,4,0,0,0-3.954,3.932l-.537,31.855a27.846,27.846,0,0,0,17.379,26.274l-2.383,48.683a66.252,66.252,0,0,1-31.1-.1l-2.355-47.924c10.085-5.262,17.22-18,17.22-32.846,0-19.536-12.346-35.43-27.522-35.43S34.06,52.07,34.06,71.606c0,14.849,7.134,27.584,17.219,32.846L49.521,140.24a65.283,65.283,0,1,1,85.4-98.582ZM42.06,71.606c0-15.125,8.756-27.43,19.521-27.43S81.1,56.481,81.1,71.606,72.346,99.037,61.581,99.037,42.06,86.732,42.06,71.606Zm13.96,99.385.278-5.665a3.957,3.957,0,0,0,.1-1.953l2.774-56.48a20.289,20.289,0,0,0,4.826,0l3.149,64.1Zm18.963-3.431-.337-6.878a73.739,73.739,0,0,0,30.282.083l-.336,6.872A81.317,81.317,0,0,1,74.983,167.56Zm37.454,3.431,3.2-65.3c.828.073,1.662.116,2.5.116s1.677-.043,2.5-.116l2.874,58.709v.015l.322,6.576Zm18.754-13.426-.376-7.68a73.3,73.3,0,1,0-81.764-.084l-.377,7.681a79.981,79.981,0,1,1,82.517.083Z"/><text x="0" y="195" fill="#000000" font-size="5px" font-weight="bold" font-family="'Helvetica Neue', Helvetica, Arial-Unicode, Arial, Sans-serif">Created by Chandru</text><text x="0" y="200" fill="#000000" font-size="5px" font-weight="bold" font-family="'Helvetica Neue', Helvetica, Arial-Unicode, Arial, Sans-serif">from the Noun Project</text></svg>